<svg viewBox="1062.666 131.60847191011237 186 227.35955056179776" xmlns:xlink="http://www.w3.org/1999/xlink" version="1.1" xmlns="http://www.w3.org/2000/svg" style="max-height: 500px" width="186" height="227.35955056179776"><svg y="0" x="0" viewBox="0 0 496 355" data-id="lg_qcsQEK8JrwMDoBL7fZ" data-version="2" height="355" width="2000" xml:space="preserve"><rect fill="transparent" height="100%" width="100%"/><path d="M375 249.366v49.58a7.129 7.129 0 0 0 7.158 7.158h59.39a7.129 7.129 0 0 0 7.158-7.159v-55.412c10.87-2.121 18.559-11.666 18.559-23.066 0-10.606-7.424-19.62-17.499-22.536-3.181-.796-6.363-1.061-9.81-.53-4.507-9.81-14.317-16.439-25.452-16.439-10.34 0-19.62 5.833-24.657 14.848-3.182-.796-6.628-.796-9.81-.266-12.196 1.591-22.271 11.931-23.597 24.392-1.325 12.992 6.363 25.188 18.56 29.43m-13.257-28.9c1.06-10.074 9.28-18.293 19.09-19.619 1.06-.265 2.12-.265 3.18-.265 2.122 0 4.508.265 6.63 1.06h.264s7.159 1.591 11.136 8.22c.53.795 1.325 1.325 2.386 1.325.53 0 .795 0 1.326-.265 1.325-.795 1.59-2.386 1.06-3.712-3.447-5.568-8.219-8.484-11.4-9.81 3.976-6.893 11.4-11.135 19.354-11.135 9.545 0 18.029 6.098 21.21 15.112.53 1.326 1.856 2.121 3.182 1.591 3.181-.795 6.363-.795 9.28 0 7.953 2.121 13.521 9.28 13.786 17.499 0 9.28-6.893 17.233-16.173 18.028-1.325.266-2.386 1.326-2.386 2.652v57.533c0 1.06-.795 1.856-1.856 1.856h-59.654c-1.06 0-1.856-.796-1.856-1.856v-51.435c0-1.326-.795-2.121-1.856-2.652-11.135-2.65-18.029-12.99-16.703-24.126" fill="#ff851b"/><path d="M388.786 292.582c1.591 0 2.652-1.06 2.652-2.651v-16.438c0-1.591-1.061-2.652-2.652-2.652s-2.651 1.06-2.651 2.652v16.438c0 1.59 1.326 2.651 2.651 2.651m11.666 0c1.59 0 2.651-1.06 2.651-2.651v-16.438c0-1.591-1.06-2.652-2.651-2.652s-2.651 1.06-2.651 2.652v16.438c0 1.59 1.06 2.651 2.651 2.651m11.4 0c1.591 0 2.652-1.06 2.652-2.651v-16.438c0-1.591-1.06-2.652-2.651-2.652s-2.652 1.06-2.652 2.652v16.438c0 1.59 1.326 2.651 2.652 2.651m11.666 0c1.591 0 2.652-1.06 2.652-2.651v-16.438c0-1.591-1.061-2.652-2.652-2.652s-2.651 1.06-2.651 2.652v16.438c0 1.59 1.06 2.651 2.651 2.651m11.4 0c1.592 0 2.652-1.06 2.652-2.651v-16.438c0-1.591-1.06-2.652-2.651-2.652s-2.651 1.06-2.651 2.652v16.438c0 1.59 1.325 2.651 2.65 2.651" fill="#ff851b"/><path d="M488.475 346.403v-205.74c0-1.591-1.06-2.652-2.651-2.652h-164.38c-1.592 0-2.652 1.06-2.652 2.651v205.741c0 1.591 1.06 2.652 2.651 2.652H486.09c1.326 0 2.386-1.326 2.386-2.652m-149.268-2.651h-15.378V143.314h15.378zm143.966 0H344.51V143.314h138.663z" fill="#ff851b"/></svg></svg>