<svg xmlns="http://www.w3.org/2000/svg" xmlns:xlink="http://www.w3.org/1999/xlink" version="1.1" viewBox="718.5 0 563 361"><svg xml:space="preserve" width="2000" height="361" data-version="2" data-id="lg_qcsQEK8JrwMDoBL7fZ" viewBox="0 0 563 361" x="0" y="0"><rect width="100%" height="100%" fill="transparent"/><path fill="#ff851b" d="M250.301 115.04v49.58a7.129 7.129 0 0 0 7.159 7.158h59.39a7.129 7.129 0 0 0 7.158-7.159v-55.412c10.87-2.121 18.559-11.666 18.559-23.066 0-10.606-7.424-19.62-17.499-22.536-3.181-.796-6.363-1.061-9.81-.53-4.507-9.81-14.317-16.439-25.452-16.439-10.34 0-19.62 5.833-24.657 14.848-3.182-.796-6.628-.796-9.81-.266-12.196 1.591-22.271 11.931-23.597 24.392-1.325 12.992 6.363 25.188 18.56 29.43m-13.256-28.9c1.06-10.074 9.28-18.293 19.09-19.619 1.06-.265 2.12-.265 3.18-.265 2.122 0 4.508.265 6.63 1.06h.264s7.159 1.591 11.136 8.22c.53.795 1.325 1.325 2.386 1.325.53 0 .795 0 1.326-.265 1.325-.795 1.59-2.386 1.06-3.712-3.447-5.568-8.219-8.484-11.4-9.81 3.976-6.893 11.4-11.135 19.354-11.135 9.545 0 18.029 6.098 21.21 15.112.53 1.326 1.856 2.121 3.182 1.591 3.181-.795 6.363-.795 9.28 0 7.953 2.121 13.521 9.28 13.786 17.499 0 9.28-6.893 17.233-16.173 18.028-1.325.266-2.386 1.326-2.386 2.652v57.533c0 1.06-.795 1.856-1.856 1.856H257.46c-1.06 0-1.856-.796-1.856-1.856v-51.435c0-1.326-.795-2.121-1.856-2.652-11.135-2.65-18.029-12.99-16.703-24.126"/><path fill="#ff851b" d="M264.088 158.256c1.591 0 2.652-1.06 2.652-2.651v-16.438c0-1.591-1.061-2.652-2.652-2.652s-2.651 1.06-2.651 2.652v16.438c0 1.59 1.326 2.651 2.651 2.651m11.666 0c1.59 0 2.651-1.06 2.651-2.651v-16.438c0-1.591-1.06-2.652-2.651-2.652s-2.651 1.06-2.651 2.652v16.438c0 1.59 1.06 2.651 2.651 2.651m11.4 0c1.591 0 2.652-1.06 2.652-2.651v-16.438c0-1.591-1.06-2.652-2.651-2.652s-2.652 1.06-2.652 2.652v16.438c0 1.59 1.326 2.651 2.652 2.651m11.666 0c1.591 0 2.652-1.06 2.652-2.651v-16.438c0-1.591-1.06-2.652-2.652-2.652s-2.651 1.06-2.651 2.652v16.438c0 1.59 1.06 2.651 2.651 2.651m11.4 0c1.592 0 2.652-1.06 2.652-2.651v-16.438c0-1.591-1.06-2.652-2.651-2.652s-2.651 1.06-2.651 2.652v16.438c0 1.59 1.325 2.651 2.65 2.651"/><path fill="#ff851b" d="M363.777 212.077V6.337c0-1.591-1.06-2.652-2.651-2.652h-164.38c-1.592 0-2.652 1.06-2.652 2.651v205.741c0 1.591 1.06 2.652 2.651 2.652h164.646c1.326 0 2.386-1.326 2.386-2.652m-149.268-2.651H199.13V8.988h15.378zm143.966 0H219.812V8.988h138.663z"/><path d="M36.015 356.317q-15.73 0-23.08-8.2-7.36-8.21-7.36-22.8 0-11.29 4.39-20.01 4.39-8.72 12.66-13.68 8.26-4.96 19.77-4.96 10.38 0 15.79 3.36 5.42 3.37 5.42 8.61 0 3.19-2 5.07-1.99 1.88-5.87 1.88-2.16 0-4.39-.68-2.22-.68-4.84-1.37-2.62-.68-6.27-.68-9.46 0-14.19 5.01-4.74 5.02-4.74 14.48 0 9.01 4.56 13.06 4.56 4.04 12.43 4.04 3.88 0 6.78-.85 2.91-.86 5.48-1.71 2.56-.86 5.18-.86 2.62 0 4.33 1.66 1.71 1.65 1.71 4.73 0 3.53-2.85 6.72t-8.55 5.19q-5.7 1.99-14.36 1.99"/><rect width="58.03" height="69.65" x="-29.02" y="-34.83" fill="none" rx="0" ry="0" transform="translate(35.09 322)"/><path d="M98.825 355.407q-9.12 0-15.9-4.04-6.78-4.05-10.49-11.58-3.7-7.52-3.7-17.89 0-10.83 3.76-18.93 3.76-8.09 10.66-12.65 6.9-4.56 16.02-4.56 9.8 0 16.98 4.39t11.17 12.25q3.99 7.87 3.99 18.36 0 10.71-3.99 18.46-3.99 7.76-11.28 11.97-7.3 4.22-17.22 4.22m1.6-15.39q7.07 0 11.23-5.64t4.16-14.99q0-9.46-4.16-15.05t-11.23-5.59q-7.3 0-11.51 5.59-4.22 5.59-4.22 15.05 0 9.35 4.22 14.99 4.21 5.64 11.51 5.64"/><rect width="62.58" height="69.65" x="-31.29" y="-34.83" fill="none" rx="0" ry="0" transform="translate(100.53 321.08)"/><path d="M170.535 355.407q-9.12 0-15.9-4.04-6.79-4.05-10.49-11.58-3.71-7.52-3.71-17.89 0-10.83 3.77-18.93 3.76-8.09 10.66-12.65 6.89-4.56 16.01-4.56 9.81 0 16.99 4.39 7.18 4.39 11.17 12.25 3.99 7.87 3.99 18.36 0 10.71-3.99 18.46-3.99 7.76-11.29 11.97-7.29 4.22-17.21 4.22m1.6-15.39q7.06 0 11.23-5.64 4.16-5.64 4.16-14.99 0-9.46-4.16-15.05-4.17-5.59-11.23-5.59-7.3 0-11.52 5.59t-4.22 15.05q0 9.35 4.22 14.99 4.22 5.64 11.52 5.64"/><rect width="62.59" height="69.65" x="-31.3" y="-34.83" fill="none" rx="0" ry="0" transform="translate(172.23 321.08)"/><path d="M222.295 356.207q-2.17 0-3.54-1.31t-1.94-3.82q-.91-4.22-1.59-12.2-.69-7.98-.69-17.67 0-11.97.86-23.03.85-11.05 2.22-18.12 1.48-7.64 3.65-11.23 2.17-3.59 5.7-3.59 3.19 0 4.9 2.91 1.71 2.9 1.71 9.97t-.51 15.16q-.51 8.1-1.65 17.33h.45q7.41-10.03 13.85-16.07 6.44-6.05 11.86-8.78 5.41-2.74 9.63-2.74 3.31 0 4.9 2.05 1.6 2.06 1.6 5.02 0 5.81-9.29 13-9.29 7.18-26.73 14.7l.11-1.82q10.83 5.58 18.64 11.68 7.81 6.1 11.97 11.52 4.16 5.41 4.16 9.06 0 2.96-1.88 4.85-1.88 1.88-5.42 1.88-4.44 0-9.86-3.37-5.41-3.36-11.23-10.09-5.81-6.72-11.62-16.87h-.46q-.11 7.18-.85 13.97-.75 6.78-1.89 11.11-.79 2.97-2.45 4.73-1.65 1.77-4.61 1.77"/><rect width="59.17" height="90.97" x="-29.59" y="-45.48" fill="none" rx="0" ry="0" transform="translate(244.62 311.22)"/><path d="M291.605 356.207q-2.51 0-4.05-1.71t-2.45-4.9q-.91-4.68-1.54-12.26t-.63-16.24q0-4.9.23-11.06t.63-12.48q.4-6.33.91-11.8.51-5.47 1.08-8.89.92-5.02 2.68-7.93 1.77-2.9 5.65-2.9 3.99 0 5.81 3.02 1.82 3.02 1.82 7.46 0 5.02-.74 11.86t-2.22 13.91l-2.28 2.73q1.25-4.78 4.1-8.77 2.85-3.99 7.19-6.33 4.33-2.34 10.03-2.34 11.17 0 17.84 7.93 6.67 7.92 6.67 24.68 0 11.74-3.48 19.6-3.48 7.87-9.46 11.8-5.99 3.94-13.62 3.94-7.19 0-12.37-4.22-5.19-4.22-6.67-12.2l1.59 1.25q-.45 8.21-2.22 12.03-1.77 3.82-4.5 3.82m20.86-13.91q5.7 0 10.03-5.13 4.33-5.13 4.33-16.07 0-9.12-3.36-14.82-3.36-5.7-11.23-5.7-6.38 0-10.26 5.07-3.87 5.07-3.87 15.33 0 9.35 3.87 15.34 3.88 5.98 10.49 5.98"/><rect width="59.4" height="90.17" x="-29.7" y="-45.09" fill="none" rx="0" ry="0" transform="translate(313.13 311.62)"/><path d="M381.545 355.407q-9.12 0-15.9-4.04-6.78-4.05-10.49-11.58-3.7-7.52-3.7-17.89 0-10.83 3.76-18.93 3.76-8.09 10.66-12.65 6.9-4.56 16.02-4.56 9.8 0 16.98 4.39t11.17 12.25q3.99 7.87 3.99 18.36 0 10.71-3.99 18.46-3.99 7.76-11.28 11.97-7.3 4.22-17.22 4.22m1.6-15.39q7.07 0 11.23-5.64t4.16-14.99q0-9.46-4.16-15.05t-11.23-5.59q-7.3 0-11.51 5.59-4.22 5.59-4.22 15.05 0 9.35 4.22 14.99 4.21 5.64 11.51 5.64"/><rect width="62.58" height="69.65" x="-31.29" y="-34.83" fill="none" rx="0" ry="0" transform="translate(383.25 321.08)"/><path d="M453.255 355.407q-9.12 0-15.9-4.04-6.79-4.05-10.49-11.58-3.71-7.52-3.71-17.89 0-10.83 3.77-18.93 3.76-8.09 10.66-12.65 6.89-4.56 16.01-4.56 9.81 0 16.99 4.39 7.18 4.39 11.17 12.25 3.99 7.87 3.99 18.36 0 10.71-3.99 18.46-3.99 7.76-11.29 11.97-7.29 4.22-17.21 4.22m1.6-15.39q7.06 0 11.23-5.64 4.16-5.64 4.16-14.99 0-9.46-4.16-15.05-4.17-5.59-11.23-5.59-7.3 0-11.52 5.59t-4.22 15.05q0 9.35 4.22 14.99 4.22 5.64 11.52 5.64"/><rect width="62.59" height="69.65" x="-31.3" y="-34.83" fill="none" rx="0" ry="0" transform="translate(454.95 321.08)"/><path d="M505.015 356.207q-2.17 0-3.54-1.31t-1.94-3.82q-.91-4.22-1.59-12.2-.69-7.98-.69-17.67 0-11.97.86-23.03.85-11.05 2.22-18.12 1.48-7.64 3.65-11.23 2.17-3.59 5.7-3.59 3.19 0 4.9 2.91 1.71 2.9 1.71 9.97t-.51 15.16q-.51 8.1-1.65 17.33h.45q7.41-10.03 13.85-16.07 6.44-6.05 11.86-8.78 5.41-2.74 9.63-2.74 3.31 0 4.9 2.05 1.6 2.06 1.6 5.02 0 5.81-9.29 13-9.29 7.18-26.73 14.7l.11-1.82q10.83 5.58 18.64 11.68 7.81 6.1 11.97 11.52 4.16 5.41 4.16 9.06 0 2.96-1.88 4.85-1.88 1.88-5.42 1.88-4.44 0-9.86-3.37-5.41-3.36-11.23-10.09-5.81-6.72-11.62-16.87h-.46q-.11 7.18-.85 13.97-.75 6.78-1.89 11.11-.79 2.97-2.45 4.73-1.65 1.77-4.61 1.77"/><rect width="59.17" height="90.97" x="-29.59" y="-45.48" fill="none" rx="0" ry="0" transform="translate(527.34 311.22)"/></svg></svg>